<mxfile host="app.diagrams.net" modified="2022-12-24T02:28:20.152Z" agent="5.0 (Windows NT 10.0; Win64; x64) AppleWebKit/537.36 (KHTML, like Gecko) Chrome/108.0.0.0 Safari/537.36" version="20.7.4" etag="jtqSnA_e8Cs6mTjkXMmn" type="github">
  <diagram id="CKSDGWgcR2uJnYzijume" name="페이지-1">
    <mxGraphModel dx="757" dy="862" grid="1" gridSize="10" guides="1" tooltips="1" connect="1" arrows="1" fold="1" page="1" pageScale="1" pageWidth="827" pageHeight="1169" math="0" shadow="0">
      <root>
        <mxCell id="0" />
        <mxCell id="1" parent="0" />
        <mxCell id="yK6nXgN5uJeD-vHt00XF-17" style="edgeStyle=none;rounded=0;orthogonalLoop=1;jettySize=auto;html=1;entryX=0;entryY=0.5;entryDx=0;entryDy=0;endArrow=none;endFill=0;" edge="1" parent="1" source="yK6nXgN5uJeD-vHt00XF-1" target="yK6nXgN5uJeD-vHt00XF-7">
          <mxGeometry relative="1" as="geometry" />
        </mxCell>
        <mxCell id="yK6nXgN5uJeD-vHt00XF-19" style="edgeStyle=none;rounded=0;orthogonalLoop=1;jettySize=auto;html=1;entryX=0;entryY=0.5;entryDx=0;entryDy=0;endArrow=none;endFill=0;" edge="1" parent="1" target="yK6nXgN5uJeD-vHt00XF-5">
          <mxGeometry relative="1" as="geometry">
            <mxPoint x="70" y="310" as="sourcePoint" />
          </mxGeometry>
        </mxCell>
        <mxCell id="yK6nXgN5uJeD-vHt00XF-20" style="edgeStyle=none;rounded=0;orthogonalLoop=1;jettySize=auto;html=1;entryX=0;entryY=0.5;entryDx=0;entryDy=0;endArrow=none;endFill=0;" edge="1" parent="1" target="yK6nXgN5uJeD-vHt00XF-6">
          <mxGeometry relative="1" as="geometry">
            <mxPoint x="70" y="310" as="sourcePoint" />
          </mxGeometry>
        </mxCell>
        <mxCell id="yK6nXgN5uJeD-vHt00XF-1" value="이용자" style="shape=umlActor;verticalLabelPosition=bottom;verticalAlign=top;html=1;" vertex="1" parent="1">
          <mxGeometry x="40" y="290" width="30" height="60" as="geometry" />
        </mxCell>
        <mxCell id="yK6nXgN5uJeD-vHt00XF-2" value="게시판 서비스" style="shape=umlFrame;whiteSpace=wrap;html=1;width=100;height=30;" vertex="1" parent="1">
          <mxGeometry x="149" y="70" width="530" height="520" as="geometry" />
        </mxCell>
        <mxCell id="yK6nXgN5uJeD-vHt00XF-16" style="rounded=0;orthogonalLoop=1;jettySize=auto;html=1;entryX=1;entryY=0.3333333333333333;entryDx=0;entryDy=0;entryPerimeter=0;endArrow=none;endFill=0;exitX=0;exitY=0.5;exitDx=0;exitDy=0;" edge="1" parent="1" source="yK6nXgN5uJeD-vHt00XF-3" target="yK6nXgN5uJeD-vHt00XF-1">
          <mxGeometry relative="1" as="geometry">
            <mxPoint x="120" y="330" as="targetPoint" />
          </mxGeometry>
        </mxCell>
        <mxCell id="yK6nXgN5uJeD-vHt00XF-3" value="회원가입" style="rounded=1;whiteSpace=wrap;html=1;arcSize=40;fontColor=#000000;fillColor=#ffffc0;strokeColor=#ff0000;" vertex="1" parent="1">
          <mxGeometry x="190" y="230" width="90" height="40" as="geometry" />
        </mxCell>
        <mxCell id="yK6nXgN5uJeD-vHt00XF-23" style="edgeStyle=none;rounded=0;orthogonalLoop=1;jettySize=auto;html=1;entryX=0.75;entryY=1;entryDx=0;entryDy=0;dashed=1;endArrow=classic;endFill=1;exitX=1;exitY=0.5;exitDx=0;exitDy=0;" edge="1" parent="1" source="yK6nXgN5uJeD-vHt00XF-5" target="yK6nXgN5uJeD-vHt00XF-7">
          <mxGeometry relative="1" as="geometry" />
        </mxCell>
        <mxCell id="yK6nXgN5uJeD-vHt00XF-5" value="게시판 보기" style="rounded=1;whiteSpace=wrap;html=1;arcSize=40;fontColor=#000000;fillColor=#ffffc0;strokeColor=#ff0000;" vertex="1" parent="1">
          <mxGeometry x="170" y="340" width="120" height="40" as="geometry" />
        </mxCell>
        <mxCell id="yK6nXgN5uJeD-vHt00XF-24" style="edgeStyle=none;rounded=0;orthogonalLoop=1;jettySize=auto;html=1;entryX=0.75;entryY=1;entryDx=0;entryDy=0;dashed=1;endArrow=classic;endFill=1;exitX=1;exitY=0.5;exitDx=0;exitDy=0;" edge="1" parent="1" source="yK6nXgN5uJeD-vHt00XF-6" target="yK6nXgN5uJeD-vHt00XF-7">
          <mxGeometry relative="1" as="geometry" />
        </mxCell>
        <mxCell id="yK6nXgN5uJeD-vHt00XF-6" value="게시글 보기" style="rounded=1;whiteSpace=wrap;html=1;arcSize=40;fontColor=#000000;fillColor=#ffffc0;strokeColor=#ff0000;" vertex="1" parent="1">
          <mxGeometry x="170" y="460" width="120" height="40" as="geometry" />
        </mxCell>
        <mxCell id="yK6nXgN5uJeD-vHt00XF-21" value="&amp;lt;&amp;lt;include&amp;gt;&amp;gt;" style="edgeStyle=none;rounded=0;orthogonalLoop=1;jettySize=auto;html=1;endArrow=classic;endFill=1;dashed=1;" edge="1" parent="1" source="yK6nXgN5uJeD-vHt00XF-7" target="yK6nXgN5uJeD-vHt00XF-10">
          <mxGeometry relative="1" as="geometry" />
        </mxCell>
        <mxCell id="yK6nXgN5uJeD-vHt00XF-7" value="회원 로그인" style="rounded=1;whiteSpace=wrap;html=1;arcSize=40;fontColor=#000000;fillColor=#ffffc0;strokeColor=#ff0000;" vertex="1" parent="1">
          <mxGeometry x="280" y="100" width="120" height="40" as="geometry" />
        </mxCell>
        <mxCell id="yK6nXgN5uJeD-vHt00XF-33" style="edgeStyle=none;rounded=0;orthogonalLoop=1;jettySize=auto;html=1;entryX=0;entryY=0.5;entryDx=0;entryDy=0;endArrow=none;endFill=0;exitX=1;exitY=0.5;exitDx=0;exitDy=0;" edge="1" parent="1" source="yK6nXgN5uJeD-vHt00XF-10" target="yK6nXgN5uJeD-vHt00XF-31">
          <mxGeometry relative="1" as="geometry" />
        </mxCell>
        <mxCell id="yK6nXgN5uJeD-vHt00XF-10" value="인증" style="rounded=1;whiteSpace=wrap;html=1;arcSize=40;fontColor=#000000;fillColor=#ffffc0;strokeColor=#ff0000;" vertex="1" parent="1">
          <mxGeometry x="530" y="100" width="120" height="40" as="geometry" />
        </mxCell>
        <mxCell id="yK6nXgN5uJeD-vHt00XF-22" value="&amp;lt;&amp;lt;extend&amp;gt;&amp;gt;" style="edgeStyle=none;rounded=0;orthogonalLoop=1;jettySize=auto;html=1;endArrow=classic;endFill=1;exitX=0;exitY=0.5;exitDx=0;exitDy=0;entryX=0.964;entryY=0.869;entryDx=0;entryDy=0;dashed=1;entryPerimeter=0;" edge="1" parent="1" source="yK6nXgN5uJeD-vHt00XF-11" target="yK6nXgN5uJeD-vHt00XF-7">
          <mxGeometry relative="1" as="geometry">
            <mxPoint x="450" y="120" as="targetPoint" />
          </mxGeometry>
        </mxCell>
        <mxCell id="yK6nXgN5uJeD-vHt00XF-11" value="로그인 실패" style="rounded=1;whiteSpace=wrap;html=1;arcSize=40;fontColor=#000000;fillColor=#ffffc0;strokeColor=#ff0000;" vertex="1" parent="1">
          <mxGeometry x="530" y="180" width="120" height="40" as="geometry" />
        </mxCell>
        <mxCell id="yK6nXgN5uJeD-vHt00XF-25" style="edgeStyle=none;rounded=0;orthogonalLoop=1;jettySize=auto;html=1;entryX=1;entryY=0.5;entryDx=0;entryDy=0;dashed=1;endArrow=classic;endFill=1;exitX=0;exitY=0.5;exitDx=0;exitDy=0;" edge="1" parent="1" source="yK6nXgN5uJeD-vHt00XF-12" target="yK6nXgN5uJeD-vHt00XF-5">
          <mxGeometry relative="1" as="geometry" />
        </mxCell>
        <mxCell id="yK6nXgN5uJeD-vHt00XF-12" value="게시판 정렬하기" style="rounded=1;whiteSpace=wrap;html=1;arcSize=40;fontColor=#000000;fillColor=#ffffc0;strokeColor=#ff0000;" vertex="1" parent="1">
          <mxGeometry x="390" y="290" width="120" height="40" as="geometry" />
        </mxCell>
        <mxCell id="yK6nXgN5uJeD-vHt00XF-26" style="edgeStyle=none;rounded=0;orthogonalLoop=1;jettySize=auto;html=1;entryX=1;entryY=0.5;entryDx=0;entryDy=0;dashed=1;endArrow=classic;endFill=1;exitX=0;exitY=0.5;exitDx=0;exitDy=0;" edge="1" parent="1" source="yK6nXgN5uJeD-vHt00XF-13" target="yK6nXgN5uJeD-vHt00XF-5">
          <mxGeometry relative="1" as="geometry" />
        </mxCell>
        <mxCell id="yK6nXgN5uJeD-vHt00XF-13" value="게시판 검색" style="rounded=1;whiteSpace=wrap;html=1;arcSize=40;fontColor=#000000;fillColor=#ffffc0;strokeColor=#ff0000;" vertex="1" parent="1">
          <mxGeometry x="390" y="360" width="120" height="40" as="geometry" />
        </mxCell>
        <mxCell id="yK6nXgN5uJeD-vHt00XF-27" style="edgeStyle=none;rounded=0;orthogonalLoop=1;jettySize=auto;html=1;entryX=1;entryY=0.5;entryDx=0;entryDy=0;dashed=1;endArrow=classic;endFill=1;exitX=0;exitY=0.5;exitDx=0;exitDy=0;" edge="1" parent="1" source="yK6nXgN5uJeD-vHt00XF-14" target="yK6nXgN5uJeD-vHt00XF-6">
          <mxGeometry relative="1" as="geometry" />
        </mxCell>
        <mxCell id="yK6nXgN5uJeD-vHt00XF-36" style="edgeStyle=none;rounded=0;orthogonalLoop=1;jettySize=auto;html=1;entryX=0;entryY=0.5;entryDx=0;entryDy=0;endArrow=none;endFill=0;exitX=1;exitY=0.5;exitDx=0;exitDy=0;" edge="1" parent="1" source="yK6nXgN5uJeD-vHt00XF-14" target="yK6nXgN5uJeD-vHt00XF-31">
          <mxGeometry relative="1" as="geometry" />
        </mxCell>
        <mxCell id="yK6nXgN5uJeD-vHt00XF-14" value="게시글 쓰기, 수정, 삭제" style="rounded=1;whiteSpace=wrap;html=1;arcSize=40;fontColor=#000000;fillColor=#ffffc0;strokeColor=#ff0000;" vertex="1" parent="1">
          <mxGeometry x="460" y="440" width="140" height="40" as="geometry" />
        </mxCell>
        <mxCell id="yK6nXgN5uJeD-vHt00XF-28" style="edgeStyle=none;rounded=0;orthogonalLoop=1;jettySize=auto;html=1;entryX=1;entryY=0.5;entryDx=0;entryDy=0;dashed=1;endArrow=classic;endFill=1;exitX=0;exitY=0.5;exitDx=0;exitDy=0;" edge="1" parent="1" source="yK6nXgN5uJeD-vHt00XF-15" target="yK6nXgN5uJeD-vHt00XF-6">
          <mxGeometry relative="1" as="geometry" />
        </mxCell>
        <mxCell id="yK6nXgN5uJeD-vHt00XF-37" style="edgeStyle=none;rounded=0;orthogonalLoop=1;jettySize=auto;html=1;entryX=0;entryY=0.5;entryDx=0;entryDy=0;endArrow=none;endFill=0;exitX=1;exitY=0.5;exitDx=0;exitDy=0;" edge="1" parent="1" source="yK6nXgN5uJeD-vHt00XF-15" target="yK6nXgN5uJeD-vHt00XF-31">
          <mxGeometry relative="1" as="geometry" />
        </mxCell>
        <mxCell id="yK6nXgN5uJeD-vHt00XF-15" value="댓글 보기, 쓰기, 수정, 삭제" style="rounded=1;whiteSpace=wrap;html=1;arcSize=40;fontColor=#000000;fillColor=#ffffc0;strokeColor=#ff0000;" vertex="1" parent="1">
          <mxGeometry x="445" y="520" width="170" height="40" as="geometry" />
        </mxCell>
        <mxCell id="yK6nXgN5uJeD-vHt00XF-34" style="edgeStyle=none;rounded=0;orthogonalLoop=1;jettySize=auto;html=1;entryX=1;entryY=0.5;entryDx=0;entryDy=0;endArrow=none;endFill=0;exitX=0;exitY=0.5;exitDx=0;exitDy=0;" edge="1" parent="1" source="yK6nXgN5uJeD-vHt00XF-31" target="yK6nXgN5uJeD-vHt00XF-5">
          <mxGeometry relative="1" as="geometry" />
        </mxCell>
        <mxCell id="yK6nXgN5uJeD-vHt00XF-35" style="edgeStyle=none;rounded=0;orthogonalLoop=1;jettySize=auto;html=1;entryX=1;entryY=0.5;entryDx=0;entryDy=0;endArrow=none;endFill=0;exitX=0;exitY=0.5;exitDx=0;exitDy=0;" edge="1" parent="1" source="yK6nXgN5uJeD-vHt00XF-31" target="yK6nXgN5uJeD-vHt00XF-6">
          <mxGeometry relative="1" as="geometry" />
        </mxCell>
        <mxCell id="yK6nXgN5uJeD-vHt00XF-31" value="DB" style="html=1;dropTarget=0;" vertex="1" parent="1">
          <mxGeometry x="720" y="286.25" width="70" height="67.5" as="geometry" />
        </mxCell>
      </root>
    </mxGraphModel>
  </diagram>
</mxfile>
